<svg width="1920" height="1080" viewBox="0 0 1920 1080" fill="none" xmlns="http://www.w3.org/2000/svg">
  <defs>
    <linearGradient id="sky" x1="960" y1="0" x2="960" y2="1080" gradientUnits="userSpaceOnUse">
      <stop offset="0" stop-color="#E9EEF5"/>
      <stop offset="0.5" stop-color="#E2E8F0"/>
      <stop offset="1" stop-color="#DCE7F2"/>
    </linearGradient>
    <linearGradient id="river" x1="0" y1="760" x2="1920" y2="980" gradientUnits="userSpaceOnUse">
      <stop stop-color="#C8D8E8"/>
      <stop offset="1" stop-color="#B8CBDD"/>
    </linearGradient>
    <linearGradient id="bridge" x1="0" y1="0" x2="1" y2="1">
      <stop stop-color="#8FA2B8"/>
      <stop offset="1" stop-color="#5E738C"/>
    </linearGradient>
    <linearGradient id="building" x1="0" y1="0" x2="1" y2="1">
      <stop stop-color="#F8FBFF"/>
      <stop offset="1" stop-color="#DCE7F3"/>
    </linearGradient>
    <filter id="blurSoft" x="-20%" y="-20%" width="140%" height="140%">
      <feGaussianBlur stdDeviation="14"/>
    </filter>
  </defs>

  <rect width="1920" height="1080" fill="url(#sky)"/>

  <g opacity="0.18" filter="url(#blurSoft)">
    <ellipse cx="400" cy="210" rx="300" ry="88" fill="#FFFFFF"/>
    <ellipse cx="1180" cy="170" rx="360" ry="100" fill="#FFFFFF"/>
    <ellipse cx="1630" cy="280" rx="290" ry="84" fill="#FFFFFF"/>
  </g>

  <g opacity="0.2">
    <path d="M760 560L860 430L920 490L980 410L1100 560H760Z" fill="#9DB2C8"/>
    <path d="M1020 560L1130 400L1210 480L1280 390L1400 560H1020Z" fill="#B2C2D3"/>
  </g>

  <g opacity="0.23">
    <rect x="1060" y="470" width="42" height="170" fill="#9FB2C6"/>
    <rect x="1116" y="435" width="52" height="205" fill="#9AAEC2"/>
    <rect x="1182" y="490" width="38" height="150" fill="#A8BBCE"/>
    <rect x="1234" y="450" width="58" height="190" fill="#95A9BE"/>
    <rect x="1308" y="510" width="34" height="130" fill="#A6B9CC"/>
  </g>

  <path d="M0 745C220 724 430 782 650 760C850 741 1040 671 1250 693C1480 716 1690 793 1920 768V1080H0V745Z" fill="url(#river)"/>

  <g opacity="0.55">
    <path d="M0 760L500 690L660 690L390 760H0Z" fill="url(#bridge)"/>
    <path d="M90 760L248 664L278 664L135 760H90Z" fill="#778DA7"/>
    <path d="M210 760L360 674L390 674L252 760H210Z" fill="#7E93AB"/>
    <path d="M320 760L470 684L500 684L365 760H320Z" fill="#869BB3"/>
    <rect x="95" y="760" width="24" height="180" fill="#7C8EA6"/>
    <rect x="235" y="760" width="24" height="180" fill="#70849D"/>
    <rect x="370" y="760" width="24" height="180" fill="#688098"/>
  </g>

  <g opacity="0.88">
    <rect x="1420" y="640" width="390" height="260" rx="6" fill="url(#building)"/>
    <rect x="1455" y="674" width="320" height="30" fill="#BFD0E3"/>
    <rect x="1455" y="720" width="320" height="30" fill="#CEDCEC"/>
    <rect x="1455" y="766" width="320" height="30" fill="#BFD0E3"/>
    <rect x="1455" y="812" width="320" height="30" fill="#CEDCEC"/>
    <rect x="1602" y="842" width="78" height="58" fill="#B8CADF"/>
  </g>

  <g opacity="0.18">
    <circle cx="320" cy="820" r="180" fill="#90A7BD"/>
    <circle cx="1680" cy="820" r="220" fill="#A5B9CC"/>
  </g>
</svg>
